# xmcd
#
# Track frame offsets: 
#        150
#        26613
#        48128
#        70248
#        93155
#        109006
#        129803
#        152193
#        171477
#        193912
#
# Disc length: 2877 seconds
#
# Revision: 0
# Processed by: cddbd v1.5.2PL0 Copyright (c) Steve Scherf et al.
# Submitted via: ExactAudioCopyFreeDBPlugin 1.0
#
DISCID=7f0b3b0a
DTITLE=Pierre Rasamimamama - Andao Instrumentale
DYEAR=1900
DGENRE=Instrumental
TTITLE0=Andao
TTITLE1=Hiara-Hitsinjaka
TTITLE2=Ikala Raivo
TTITLE3=Lasa Ianao
TTITLE4=Malaza
TTITLE5=Miezaha
TTITLE6=Mifankatiava
TTITLE7=Ravolinina
TTITLE8=Ray O
TTITLE9=Valiha Sy Guitare
EXTD=
EXTT0=
EXTT1=
EXTT2=
EXTT3=
EXTT4=
EXTT5=
EXTT6=
EXTT7=
EXTT8=
EXTT9=
PLAYORDER=
